PathFileType	4	(X/Y/Z)	markers.trc
DataRate	CameraRate	NumFrames	NumMarkers	Units	OrigDataRate	OrigDataStartFrame	OrigNumFrames
30	30	4	70	mm	30	1	450
Frame#	Time	nose			left-eye			right-eye			left-ear			right-ear			left-shoulder			right-shoulder			left-elbow			right-elbow			left-hip			right-hip			left-knee			right-knee			left-ankle			right-ankle			left-big-toe-tip			left-small-toe-tip			left-heel			right-big-toe-tip			right-small-toe-tip			right-heel			right-thumb-tip			right-thumb-first-joint			right-thumb-second-joint			right-thumb-third-joint			right-index-tip			right-index-first-joint			right-index-second-joint			right-index-third-joint			right-middle-tip			right-middle-first-joint			right-middle-second-joint			right-middle-third-joint			right-ring-tip			right-ring-first-joint			right-ring-second-joint			right-ring-third-joint			right-pinky-tip			right-pinky-first-joint			right-pinky-second-joint			right-pinky-third-joint			right-wrist			left-thumb-tip			left-thumb-first-joint			left-thumb-second-joint			left-thumb-third-joint			left-index-tip			left-index-first-joint			left-index-second-joint			left-index-third-joint			left-middle-tip			left-middle-first-joint			left-middle-second-joint			left-middle-third-joint			left-ring-tip			left-ring-first-joint			left-ring-second-joint			left-ring-third-joint			left-pinky-tip			left-pinky-first-joint			left-pinky-second-joint			left-pinky-third-joint			left-wrist			left-olecranon			right-olecranon			left-cubital-fossa			right-cubital-fossa			left-acromion			right-acromion			neck			
		X1	Y1	Z1	X2	Y2	Z2	X3	Y3	Z3	X4	Y4	Z4	X5	Y5	Z5	X6	Y6	Z6	X7	Y7	Z7	X8	Y8	Z8	X9	Y9	Z9	X10	Y10	Z10	X11	Y11	Z11	X12	Y12	Z12	X13	Y13	Z13	X14	Y14	Z14	X15	Y15	Z15	X16	Y16	Z16	X17	Y17	Z17	X18	Y18	Z18	X19	Y19	Z19	X20	Y20	Z20	X21	Y21	Z21	X22	Y22	Z22	X23	Y23	Z23	X24	Y24	Z24	X25	Y25	Z25	X26	Y26	Z26	X27	Y27	Z27	X28	Y28	Z28	X29	Y29	Z29	X30	Y30	Z30	X31	Y31	Z31	X32	Y32	Z32	X33	Y33	Z33	X34	Y34	Z34	X35	Y35	Z35	X36	Y36	Z36	X37	Y37	Z37	X38	Y38	Z38	X39	Y39	Z39	X40	Y40	Z40	X41	Y41	Z41	X42	Y42	Z42	X43	Y43	Z43	X44	Y44	Z44	X45	Y45	Z45	X46	Y46	Z46	X47	Y47	Z47	X48	Y48	Z48	X49	Y49	Z49	X50	Y50	Z50	X51	Y51	Z51	X52	Y52	Z52	X53	Y53	Z53	X54	Y54	Z54	X55	Y55	Z55	X56	Y56	Z56	X57	Y57	Z57	X58	Y58	Z58	X59	Y59	Z59	X60	Y60	Z60	X61	Y61	Z61	X62	Y62	Z62	X63	Y63	Z63	X64	Y64	Z64	X65	Y65	Z65	X66	Y66	Z66	X67	Y67	Z67	X68	Y68	Z68	X69	Y69	Z69	X70	Y70	Z70	

1	0.000000	0.00000	-392.00000	2600.00000	-20.80000	-412.80000	2600.00000	20.80000	-412.80000	2600.00000	-48.00000	-393.60000	2600.00000	48.00000	-393.60000	2600.00000	-88.00000	-312.00000	2600.00000	88.00000	-312.00000	2600.00000	-88.00000	-168.00000	2600.00000	88.00000	-168.00000	2600.00000	-51.20000	0.00000	2600.00000	51.20000	0.00000	2600.00000	-51.20000	184.00000	2600.00000	51.20000	184.00000	2600.00000	-51.20000	360.00000	2600.00000	51.20000	360.00000	2600.00000	-51.20000	387.20000	2600.00000	-70.40000	387.20000	2600.00000	-51.20000	384.00000	2600.00000	51.20000	387.20000	2600.00000	70.40000	387.20000	2600.00000	51.20000	384.00000	2600.00000	0.00000	0.00000	2600.00000	0.00000	0.00000	2600.00000	0.00000	0.00000	2600.00000	0.00000	0.00000	2600.00000	0.00000	0.00000	2600.00000	0.00000	0.00000	2600.00000	0.00000	0.00000	2600.00000	0.00000	0.00000	2600.00000	0.00000	0.00000	2600.00000	0.00000	0.00000	2600.00000	0.00000	0.00000	2600.00000	0.00000	0.00000	2600.00000	0.00000	0.00000	2600.00000	0.00000	0.00000	2600.00000	0.00000	0.00000	2600.00000	0.00000	0.00000	2600.00000	0.00000	0.00000	2600.00000	0.00000	0.00000	2600.00000	0.00000	0.00000	2600.00000	0.00000	0.00000	2600.00000	88.00000	-48.00000	2600.00000	0.00000	0.00000	2600.00000	0.00000	0.00000	2600.00000	0.00000	0.00000	2600.00000	0.00000	0.00000	2600.00000	0.00000	0.00000	2600.00000	0.00000	0.00000	2600.00000	0.00000	0.00000	2600.00000	0.00000	0.00000	2600.00000	0.00000	0.00000	2600.00000	0.00000	0.00000	2600.00000	0.00000	0.00000	2600.00000	0.00000	0.00000	2600.00000	0.00000	0.00000	2600.00000	0.00000	0.00000	2600.00000	0.00000	0.00000	2600.00000	0.00000	0.00000	2600.00000	0.00000	0.00000	2600.00000	0.00000	0.00000	2600.00000	0.00000	0.00000	2600.00000	0.00000	0.00000	2600.00000	-88.00000	-48.00000	2600.00000	0.00000	0.00000	2600.00000	0.00000	0.00000	2600.00000	0.00000	0.00000	2600.00000	0.00000	0.00000	2600.00000	0.00000	0.00000	2600.00000	0.00000	0.00000	2600.00000	0.00000	-328.00000	2600.00000
2	0.033333	0.00000	-392.00000	2609.02600	-20.80000	-412.80000	2609.02600	20.80000	-412.80000	2609.02600	-48.00000	-393.60000	2609.02600	48.00000	-393.60000	2609.02600	-88.00000	-312.00000	2609.02600	88.00000	-312.00000	2609.02600	-79.33500	-168.00000	2609.02600	79.33500	-168.00000	2609.02600	-51.20000	0.00000	2609.02600	51.20000	0.00000	2609.02600	-64.19700	184.00000	2609.02600	64.19700	179.66800	2609.02600	-78.63900	360.00000	2609.02600	78.63900	352.77900	2609.02600	-84.41600	387.20000	2609.02600	-103.61600	387.20000	2609.02600	-75.75100	384.00000	2609.02600	84.41600	379.97900	2609.02600	103.61600	379.97900	2609.02600	75.75100	376.77900	2609.02600	0.00000	0.00000	2600.00000	0.00000	0.00000	2600.00000	0.00000	0.00000	2600.00000	0.00000	0.00000	2600.00000	0.00000	0.00000	2600.00000	0.00000	0.00000	2600.00000	0.00000	0.00000	2600.00000	0.00000	0.00000	2600.00000	0.00000	0.00000	2600.00000	0.00000	0.00000	2600.00000	0.00000	0.00000	2600.00000	0.00000	0.00000	2600.00000	0.00000	0.00000	2600.00000	0.00000	0.00000	2600.00000	0.00000	0.00000	2600.00000	0.00000	0.00000	2600.00000	0.00000	0.00000	2600.00000	0.00000	0.00000	2600.00000	0.00000	0.00000	2600.00000	0.00000	0.00000	2600.00000	69.22600	-45.11200	2609.02600	0.00000	0.00000	2600.00000	0.00000	0.00000	2600.00000	0.00000	0.00000	2600.00000	0.00000	0.00000	2600.00000	0.00000	0.00000	2600.00000	0.00000	0.00000	2600.00000	0.00000	0.00000	2600.00000	0.00000	0.00000	2600.00000	0.00000	0.00000	2600.00000	0.00000	0.00000	2600.00000	0.00000	0.00000	2600.00000	0.00000	0.00000	2600.00000	0.00000	0.00000	2600.00000	0.00000	0.00000	2600.00000	0.00000	0.00000	2600.00000	0.00000	0.00000	2600.00000	0.00000	0.00000	2600.00000	0.00000	0.00000	2600.00000	0.00000	0.00000	2600.00000	0.00000	0.00000	2600.00000	-69.22600	-45.11200	2609.02600	0.00000	0.00000	2600.00000	0.00000	0.00000	2600.00000	0.00000	0.00000	2600.00000	0.00000	0.00000	2600.00000	0.00000	0.00000	2600.00000	0.00000	0.00000	2600.00000	0.00000	-328.00000	2609.02600
3	0.066667	0.00000	-392.00000	2617.75500	-20.80000	-412.80000	2617.75500	20.80000	-412.80000	2617.75500	-48.00000	-393.60000	2617.75500	48.00000	-393.60000	2617.75500	-88.00000	-312.00000	2617.75500	88.00000	-312.00000	2617.75500	-70.95500	-168.00000	2617.75500	70.95500	-168.00000	2617.75500	-51.20000	0.00000	2617.75500	51.20000	0.00000	2617.75500	-76.76800	184.00000	2617.75500	76.76800	175.47700	2617.75500	-105.17600	360.00000	2617.75500	105.17600	345.79600	2617.75500	-116.54000	387.20000	2617.75500	-135.74000	387.20000	2617.75500	-99.49500	384.00000	2617.75500	116.54000	372.99600	2617.75500	135.74000	372.99600	2617.75500	99.49500	369.79600	2617.75500	0.00000	0.00000	2600.00000	0.00000	0.00000	2600.00000	0.00000	0.00000	2600.00000	0.00000	0.00000	2600.00000	0.00000	0.00000	2600.00000	0.00000	0.00000	2600.00000	0.00000	0.00000	2600.00000	0.00000	0.00000	2600.00000	0.00000	0.00000	2600.00000	0.00000	0.00000	2600.00000	0.00000	0.00000	2600.00000	0.00000	0.00000	2600.00000	0.00000	0.00000	2600.00000	0.00000	0.00000	2600.00000	0.00000	0.00000	2600.00000	0.00000	0.00000	2600.00000	0.00000	0.00000	2600.00000	0.00000	0.00000	2600.00000	0.00000	0.00000	2600.00000	0.00000	0.00000	2600.00000	51.06900	-42.31800	2617.75500	0.00000	0.00000	2600.00000	0.00000	0.00000	2600.00000	0.00000	0.00000	2600.00000	0.00000	0.00000	2600.00000	0.00000	0.00000	2600.00000	0.00000	0.00000	2600.00000	0.00000	0.00000	2600.00000	0.00000	0.00000	2600.00000	0.00000	0.00000	2600.00000	0.00000	0.00000	2600.00000	0.00000	0.00000	2600.00000	0.00000	0.00000	2600.00000	0.00000	0.00000	2600.00000	0.00000	0.00000	2600.00000	0.00000	0.00000	2600.00000	0.00000	0.00000	2600.00000	0.00000	0.00000	2600.00000	0.00000	0.00000	2600.00000	0.00000	0.00000	2600.00000	0.00000	0.00000	2600.00000	-51.06900	-42.31800	2617.75500	0.00000	0.00000	2600.00000	0.00000	0.00000	2600.00000	0.00000	0.00000	2600.00000	0.00000	0.00000	2600.00000	0.00000	0.00000	2600.00000	0.00000	0.00000	2600.00000	0.00000	-328.00000	2617.75500
4	0.100000	0.00000	-392.00000	2625.90100	-20.80000	-412.80000	2625.90100	20.80000	-412.80000	2625.90100	-48.00000	-393.60000	2625.90100	48.00000	-393.60000	2625.90100	-88.00000	-312.00000	2625.90100	88.00000	-312.00000	2625.90100	-63.13500	-168.00000	2625.90100	63.13500	-168.00000	2625.90100	-51.20000	0.00000	2625.90100	51.20000	0.00000	2625.90100	-88.49800	184.00000	2625.90100	88.49800	171.56700	2625.90100	-129.94000	360.00000	2625.90100	129.94000	339.27900	2625.90100	-146.51700	387.20000	2625.90100	-165.71700	387.20000	2625.90100	-121.65200	384.00000	2625.90100	146.51700	366.47900	2625.90100	165.71700	366.47900	2625.90100	121.65200	363.27900	2625.90100	0.00000	0.00000	2600.00000	0.00000	0.00000	2600.00000	0.00000	0.00000	2600.00000	0.00000	0.00000	2600.00000	0.00000	0.00000	2600.00000	0.00000	0.00000	2600.00000	0.00000	0.00000	2600.00000	0.00000	0.00000	2600.00000	0.00000	0.00000	2600.00000	0.00000	0.00000	2600.00000	0.00000	0.00000	2600.00000	0.00000	0.00000	2600.00000	0.00000	0.00000	2600.00000	0.00000	0.00000	2600.00000	0.00000	0.00000	2600.00000	0.00000	0.00000	2600.00000	0.00000	0.00000	2600.00000	0.00000	0.00000	2600.00000	0.00000	0.00000	2600.00000	0.00000	0.00000	2600.00000	34.12500	-39.71200	2625.90100	0.00000	0.00000	2600.00000	0.00000	0.00000	2600.00000	0.00000	0.00000	2600.00000	0.00000	0.00000	2600.00000	0.00000	0.00000	2600.00000	0.00000	0.00000	2600.00000	0.00000	0.00000	2600.00000	0.00000	0.00000	2600.00000	0.00000	0.00000	2600.00000	0.00000	0.00000	2600.00000	0.00000	0.00000	2600.00000	0.00000	0.00000	2600.00000	0.00000	0.00000	2600.00000	0.00000	0.00000	2600.00000	0.00000	0.00000	2600.00000	0.00000	0.00000	2600.00000	0.00000	0.00000	2600.00000	0.00000	0.00000	2600.00000	0.00000	0.00000	2600.00000	0.00000	0.00000	2600.00000	-34.12500	-39.71200	2625.90100	0.00000	0.00000	2600.00000	0.00000	0.00000	2600.00000	0.00000	0.00000	2600.00000	0.00000	0.00000	2600.00000	0.00000	0.00000	2600.00000	0.00000	0.00000	2600.00000	0.00000	-328.00000	2625.90100
